<?xml version="1.0" encoding="utf-8"?>
<!-- Generator: Adobe Illustrator 26.3.1, SVG Export Plug-In . SVG Version: 6.00 Build 0)  -->
<svg version="1.1" id="Layer_1" xmlns="http://www.w3.org/2000/svg" xmlns:xlink="http://www.w3.org/1999/xlink" x="0px" y="0px"
	 viewBox="0 0 198.43 198.43" style="enable-background:new 0 0 198.43 198.43;" xml:space="preserve">
<g>
	<g>
		<path class="st0" d="M11.29,99.32c2.79-6.99,2.3,5.13,2.79,7.9c3.07-0.07,0.16-3.36,3.16-3.5c1.62,4.13-0.9,7.71-3.48,9.27
			c-0.24,3.16,0.99,4.9,1.49,7.33c2.12-1.5,1.14-6.04,4.47-6.35c4.28,3.07-0.69,8.34-3.47,10.26c0.38,3.36,1.98,5.53,2.98,8.3
			c2.11-0.36,1.08-3.82,3.97-3.42c0.1,8.1-0.06,15.14,5.46,19.53c0.12-2.54-2.35-5.55,0-7.32c5.86,7.42,6.56,19.91,15.89,23.93
			c0.2-2.31-0.89-3.37-0.5-5.86c7.48,1.23,2.11,12.19,10.92,12.21c0.6-1.68-3.39-4.75-1.99-7.33c4.79-1.72,6.42,5.86,5.46,9.77
			c2.34,1.44,4.89,2.69,7.94,3.42c1.26-0.96-1.12-2.45-0.49-4.4c7.03,2.36,8.45,10.25,18.36,9.77c0.46-1.92-5.27-1.96-4.96-5.37
			c9.38,0.72,15.36,8.71,28.29,6.35c-0.43-2.35-3.08-2.5-4.46-3.9c2.84-3.74,8.2,0.45,9.92,2.44c2.76-0.06,5-0.62,6.95-1.47
			c-1.48-2.12-6.29-0.97-6.45-4.39c3.47-4.26,8.52,0.89,10.92,3.42c2.98-0.66,5.34-1.91,7.94-2.93c-0.62-1.83-3.79-1.16-3.47-3.91
			c8.19-0.14,15.56,0.22,19.85-5.37c-2.3,0.3-5.68,2.08-7.45,0c7.64-5.51,19.81-6.56,24.33-15.14c-1.47-1.41-3.58,0.68-5.96,0
			c1.21-7.26,12.25-1.91,12.4-10.26c-1.63-0.83-4.96,3.09-7.44,1.46c-1.6-4.56,5.94-6.34,9.93-5.37c1.91-2.02,2.73-5.12,3.97-7.81
			c-1.25-0.99-2.6,1.06-4.96,0.49c2.58-6.9,10.73-8.32,9.93-18.56c-2.08,1.54-2.02,5.18-5.46,5.37c0.08-6.35,6.65-16.65,7.64-23.71
			c5.35,0.38,9.53,8.14,8.25,13.45c-4.85,0.38-4.59-4.28-7.44-5.86c-2.52,2.89-0.65,10.11-2.49,13.67
			c1.26,3.57,7.12,7.89,3.48,11.72c-3.47-0.01-2.99-3.9-3.97-6.34c-2.25,4.13-3.21,9.53-5.46,13.67c1.25,2.63,6.4,9.21,1.49,11.72
			c-2.11-1.34-1.86-5.01-2.98-7.32c-2.68,2.08-3.82,5.68-5.95,8.3c0.59,3.01,2.97,8.86,0.49,11.72c-3.48-0.15-2.1-5.09-2.48-8.3
			c-3.06,2.69-4.7,6.77-8.44,8.79c1.28,3.07,5.32,11.63-1.49,11.72c-1.72-2.75,1.06-7.17,0-9.28c-4.71,2.2-7.4,6.4-11.91,8.79
			c-1.21,4.02-0.46,9.97-5.46,10.26c-2.51-2.37,0.9-5.01,1.49-7.32c-4.65,2.1-9.38,4.12-13.9,6.35c-1.35,3.88-1.29,9.15-6.46,9.28
			c-1.47-2.9,1.69-5.06,2.49-7.32c-3-1.14-6.81,1.1-9.93,1.46c-2.82,2.7-3.86,9.39-8.93,8.3c0.01-4.05,3.19-5,4.96-7.32
			c-4.16-0.11-9.26,1.21-12.41,0.49c-1.76,3.64-2.62,8.16-7.45,8.79c-0.36-0.46-0.9-0.74-1.49-0.98c-0.32-4.71,5.07-3.8,5.95-7.33
			c-4.98-0.24-9.34-2.67-13.89-1.95c-4.07,0.65-8.02,7.62-11.91,2.93c0.6-2.66,3.7-2.87,6.46-3.42c-4.2-2.22-9.34-3.51-13.9-5.37
			c-3.51,1.06-7.61,5.22-11.91,2.44c0.2-3.55,4.8-2.77,7.45-3.91c-2.28-3.28-7.81-2.84-8.44-5.86c-3.43,0.19-9.61,3.34-11.91,0
			c0.42-2.84,4.89-1.7,7.94-1.95c-1.78,0.03-7.28-4.34-9.09-7.77c-2.78,1.36-6.72,2.37-10.76,0.94c0.01-1.15-0.85-1.44-0.5-2.93
			c2.79-1.43,6.08,0.41,9.43,0c-2.33-4.87-6.57-7.87-9.43-12.21c-4.71-0.23-11.03-1-9.43-5.86c3.36-0.54,4.23,1.38,6.45,1.95
			c-0.49-3.76-4.32-8.44-5.46-13.18c-4.17-1.44-10.03-1.21-9.93-6.84c3.89-0.41,5.06,1.86,7.45,2.93c1.26-3.03-1.11-6.72-1.49-9.77
			c-2.55-2.98-9.32-4.02-8.44-8.79c4.18-0.05,5.12,3.1,7.44,4.88C12.25,108.96,10.61,102.09,11.29,99.32z"/>
		<path class="st0" d="M38.28,38.76c-1.82-2.45-3.41-7.13-1.98-11.23c1.17,0.01,1.46-0.84,2.98-0.49c1.45,2.74-0.42,5.98,0,9.28
			c4.98-2.26,7.92-6.53,12.41-9.28c0.66-4.4,0.45-9.64,5.45-9.77c2.04,2.2-0.8,4.49-1.49,6.84c3.61-0.2,7.72-4.12,12.41-4.88
			c2.64-3.2,2.54-11.36,7.94-10.26c1.15,3.11-2.18,5.1-2.98,7.81c3.6-0.36,6.85-1.07,9.93-1.95c2.93-2.53,4.07-9.28,8.93-8.3
			c0.83,3.04-3.21,5.23-4.97,7.32c4.44,0.23,9.36-1.44,12.91-0.48c0.95-4.4,3.27-9.64,8.44-8.3c-0.08,0.56,0.11,0.87,0.5,0.97
			c-0.64,3.61-4.64,3.9-6.45,6.35c3.06,2.52,10.51,0.73,14.4,2.44c3.22-1.6,6.37-5.71,11.41-3.91c0.99,4.55-4.35,2.88-5.96,4.88
			c4.61,1.49,9.13,3.06,13.41,4.88c3.27-0.87,8.44-5.95,11.91-1.95c-0.56,3.03-4.95,2.29-7.45,3.42c2.12,2.64,5.77,3.76,8.44,5.86
			c3.29-0.36,9.01-2.93,11.91-0.49c0.06,3.64-5.17,2.08-8.44,2.44c2.92,2.99,6.86,4.97,9.43,8.3c2.04-1.39,12.07-4.76,11.41,1.46
			c-2.6,1.4-5.82-0.32-8.93,0c2.02,5.17,6.32,8.11,9.43,12.21c4.51,0.45,9.46,0.46,9.43,5.37c-2.88,1.53-5.19-1.28-7.45-1.95
			c2.11,4.6,4.44,8.98,6.45,13.67c4.06,1.17,10.56,2.14,9.43,6.84c-3.71,0.23-4.96-1.96-7.44-2.93c-1.09,2.87,1.35,6.48,1.48,9.77
			c3.05,2.7,8.16,3.37,8.94,8.3c-3.97,1.68-5.3-3.17-7.94-4.39c0.12,4.28,1.1,7.7,0.99,12.21c-2.22-1.23-1.24-5.62-1.49-8.79
			c-2.25,0.55-2.41,3.16-3.97,4.4c-3.39-2.53,0.01-7.99,2.48-9.28c0.09-3.01-0.41-5.45-1.49-7.32c-2.07,1.55-0.79,6.39-4.47,6.34
			c-3.76-3.13,0.92-9.1,3.97-10.25c-1.24-2.68-1.92-5.92-3.47-8.3c-1.52,0.46-1.22,2.71-2.48,3.42c-3.86-1.94-0.7-7.23-1.49-11.23
			c-0.75-3.77-3.8-6.11-5.46-8.3c0.39,2.06,1.91,5.06,0.49,7.32c-4.97-4.18-5.21-12.3-8.93-17.58c-1.91-2.7-4.84-3.96-6.95-6.34
			c-1.43,1.6,0.96,3.59,0.5,5.86c-7.56-0.21-2.68-12.66-10.92-12.21c-0.83,1.68,3.74,5.66,1,7.81c-4.81-0.12-5.4-6.54-4.97-10.25
			c-1.89-1.72-4.59-2.65-7.45-3.42c-1.48,1.02,0.66,2.57,0,4.4c-6.98-2.58-8.51-10.51-18.86-9.77c1.46,2.15,5.42,1.82,5.46,5.37
			c-9.24-0.79-15.43-8.75-28.29-6.35c0.47,2.63,4.24,2.02,4.47,4.88c-4.09,1.48-7.69-1.04-9.43-3.42c-3.18-0.19-5.32,0.63-7.45,1.47
			c1.58,2.03,6.49,0.78,6.45,4.4c-3.19,3.84-8.98-0.84-10.43-3.42c-3.41,0.38-5.62,1.95-8.44,2.93c0.57,1.88,3.91,1.03,3.97,3.42
			c-7.1,0.95-16.99,0.02-20.35,5.86c2.49,0.01,4.97-2.04,7.44-0.49c-3.79,5.06-12.64,5.14-17.87,8.79
			c-2.08,2.51-4.76,4.43-6.45,7.33c2.34,0.02,3.76-0.86,5.95-0.97c1.05,6.92-10.98,4.06-12.41,11.23c6.26-0.48-0.11-9.41,7.94-1.46
			c-0.04,4.82-6.62,5.33-10.42,4.88c-1.61,1.99-2.43,4.77-3.47,7.32c1.04,1.46,2.61-0.65,4.47,0c-2.42,6.89-10.35,8.38-9.93,18.07
			c1.91,0.41,1.93-5.26,5.46-4.88c0.16,6.53-5.35,11.65-6.45,18.56c-5.12-0.39-10.5-2.97-8.94-8.3c5.09-0.61,3.85,5,7.44,5.86
			c0.38-4.75,2.7-9.14,1.99-13.67c-0.64-4.1-8.21-8.56-2.48-11.72c2.43,0.54,2.3,3.6,2.98,5.86c2.67-0.71,0.92-2.79,1.49-4.39
			c1.09-3.09,4.08-5.83,3.97-8.79c-0.16-4.16-6.31-7.36-2.98-11.72c3.17-1.05,3.67,4.45,4.46,7.33c3-2.1,4.07-6.09,6.46-8.79
			c-1.15-2.43-3.59-9.25-0.5-11.23c2.89,0.42,1.73,4.82,1.98,7.82C32.3,46.22,34.1,40.02,38.28,38.76z"/>
	</g>
	<g>
		<path class="st1" d="M70.57,66.79c-0.76-0.38-0.77-1.55-1.47-1.97c0.05,2.07-0.19,3.42-0.2,4.78c-0.02,1.43,0.94,3.63-0.21,4.93
			c0.79,2.04,0.22,3.21,0.06,5.37c0.15,0.03,0.38-0.02,0.4,0.16c-0.54,0.29,0.23,1.34-0.57,1.48c0.68,1.13,0.54,5.4,0.59,6.58
			c-0.1-0.1-0.42-0.64-0.41-0.01c0.63,0.65,0.62,2.51-0.05,3.29c0.2,0.29,0.75,0.19,0.67,0.75c-0.27,0.36-0.58-0.26-0.68,0.29
			c0.12,0.36,0.35,0.61,0.67,0.76c-0.3,0.31,0.24,0.83-0.42,0.89c-0.06-0.29,0.43-0.64-0.13-0.6c0.02,5.82,0.19,11.47,0.43,17.34
			c0.78-2.36,1.86-4.37,2.43-6.97c0.18-0.01,0.19-0.19,0.41-0.14c1.42-4.19,2.84-8.31,4.55-12.31c1.1-2.54,2.8-4.43,3.12-7.56
			c-2.82-4.53-6.3-8.13-8.01-13.75C71.37,68.83,70.79,68.01,70.57,66.79z"/>
		<path class="st1" d="M106.52,79.36c-2.7-6.86-6.82-12.31-8.79-19.89c-1.15,0.42-0.9,1.28-1.46,2.56
			c-0.25,0.58-0.78,1.01-0.97,1.44c-0.12,0.27,0.08,0.68-0.01,0.97c-0.2,0.61-0.81,1.33-1.13,2.08c-0.32,0.76-0.65,1.48-0.98,2.25
			c-1.26,2.98-2.63,6.06-3.91,8.99c-0.97,2.22-2.02,3.85-2.3,6.11c1.36,0.59,1.49,2.95,2.45,4.09c0.18,0.22,0.54,0.21,0.63,0.33
			c-0.03-0.04-0.24,0.18-0.17,0.33c1.01,1.97,4.31,3.84,3.99,6.06c1.89,1.51,2.62,4.17,4.46,5.74c0.84-1.63,2.07-2.84,2.59-4.8
			c2.28-2.73,3.73-6.34,6.27-8.79c0.17-1.87,2.16-2.79,1.65-4.66C108.54,81.05,106.75,80.74,106.52,79.36z M104.06,80.83
			c-0.21,0.27-0.45,0.6-0.74,0.83c-0.19,0.15-0.52,0.24-0.72,0.37c-0.22,0.14-0.49,0.41-0.75,0.61c-0.29,0.22-0.63,0.49-0.7,0.71
			c-0.08,0.27,0.14,0.6,0.2,0.86c0.06,0.32-0.01,0.69-0.01,1.09c0.01,0.83,0.23,1.91,0.01,2.79c-0.68-0.3-0.95-1-1.45-1.51
			c-0.49-0.5-0.93-1.09-1.68-1.44c-0.18-0.21-0.09-0.43-0.39-0.54c-0.29-0.12-0.77,0.13-0.94,0.26c-0.3,0.22-0.59,0.61-0.91,0.95
			c-0.28,0.3-0.59,0.58-0.92,0.85c-0.69,0.58-1.27,1.25-1.96,1.46c0.27-0.74,0.66-1.8,1.01-2.77c0.15-0.42,0.45-0.8,0.5-1.16
			c0.04-0.33-0.21-0.59-0.25-0.84c-0.93-0.84-2-1.61-2.91-2.46c1.1-0.78,2.93-0.17,3.88-1.25c0.06-0.17-0.15-0.33-0.13-0.55
			c0.02-0.21,0.19-0.4,0.28-0.63c0.38-0.94,0.56-2.29,0.9-3.1c0.07,0,0.12-0.02,0.18-0.02c0.26,0.21,0.65,0.85,0.96,1.31
			c0.3,0.45,0.65,0.84,0.94,1.22c0.32,0.42,0.56,0.99,1.04,1.33c0.99,0.71,2.46,0.82,3.49,0.74c0.57-0.04,1.16-0.15,1.68-0.03
			C104.6,80.29,104.28,80.55,104.06,80.83z"/>
		<path class="st1" d="M83.69,91.74C83.69,91.74,83.69,91.74,83.69,91.74C83.96,91.56,83.83,91.64,83.69,91.74z"/>
		<path class="st1" d="M89.86,143.07c-0.11-0.15-0.22-0.24-0.33-0.26c-0.15-0.04-0.3-0.06-0.45-0.06c-0.16,0-0.3,0.02-0.46,0.06
			c-0.14,0.03-0.25,0.16-0.32,0.26c-0.13,0.18-0.24,0.48-0.32,0.89c-0.09,0.44-0.13,1.07-0.13,1.87c0,0.8,0.04,1.43,0.13,1.88
			c0.08,0.41,0.19,0.71,0.32,0.88c0.08,0.12,0.19,0.25,0.32,0.28c0.18,0.03,0.33,0.03,0.49,0.04c0.1,0,0.19,0,0.3-0.01
			c0.09-0.01,0.17-0.03,0.24-0.07c0.04-0.03,0.12-0.09,0.22-0.23c0.08-0.1,0.15-0.27,0.22-0.5c0.07-0.22,0.12-0.52,0.17-0.9
			c0.05-0.38,0.07-0.84,0.07-1.37c0-0.8-0.05-1.43-0.14-1.87C90.08,143.55,89.97,143.25,89.86,143.07z"/>
		<path class="st1" d="M146.98,43.65c-4.85-4.11-9.79-10.16-15.66-12.96c-8.22-3.91-22.8-5.45-32.67-4.94
			c-21.9,1.13-43.09,10.06-55.48,23c-13.2,13.78-22.6,40.65-18,65.13c2.61,13.87,10.29,26.87,18.73,36.45
			c8.13,9.22,27.82,22.48,43.26,24.16c12.69,1.37,27.53-1.34,37.3-4.26c24.97-7.46,47.43-33.35,49.71-62.16
			C176.33,80.52,163.29,57.47,146.98,43.65z M60.05,149.77c0,0.18-0.07,0.34-0.19,0.48c-0.14,0.14-0.3,0.21-0.48,0.21
			c-0.19,0-0.36-0.07-0.49-0.22c-0.12-0.13-0.17-0.29-0.17-0.47v-9.99l-1.42,9.82c-0.02,0.16-0.09,0.3-0.22,0.42
			c-0.26,0.24-0.64,0.23-0.89,0c-0.12-0.12-0.2-0.26-0.22-0.43l-1.39-9.63v9.8c0,0.19-0.07,0.35-0.2,0.48
			c-0.25,0.26-0.68,0.27-0.94-0.01c-0.13-0.14-0.19-0.3-0.19-0.48v-10.84c0-0.17,0.06-0.33,0.18-0.47c0.13-0.15,0.3-0.23,0.48-0.23
			h1.21c0.16,0,0.31,0.06,0.44,0.18c0.12,0.11,0.2,0.26,0.22,0.43l0.86,6.73l0.87-6.72c0.02-0.16,0.09-0.3,0.21-0.42
			c0.13-0.13,0.29-0.19,0.46-0.19h1.21c0.18,0,0.34,0.08,0.48,0.22c0.13,0.16,0.19,0.32,0.19,0.49V149.77z M63.19,149.77
			c0,0.18-0.06,0.34-0.18,0.47c-0.14,0.14-0.3,0.22-0.48,0.22c-0.19,0-0.35-0.07-0.48-0.21c-0.13-0.14-0.19-0.3-0.19-0.48v-10.84
			c0-0.17,0.06-0.33,0.18-0.47c0.26-0.3,0.71-0.3,0.98-0.01c0.12,0.15,0.18,0.31,0.18,0.48V149.77z M71.75,139.16l-2.91,6.04v4.58
			c0,0.17-0.06,0.33-0.18,0.47c-0.15,0.14-0.31,0.22-0.49,0.22c-0.18,0-0.35-0.07-0.48-0.21c-0.12-0.14-0.19-0.3-0.19-0.48v-4.58
			l-2.93-6.05c-0.09-0.17-0.11-0.35-0.04-0.53c0.05-0.18,0.16-0.32,0.31-0.41c0.17-0.09,0.35-0.11,0.52-0.05
			c0.17,0.06,0.3,0.18,0.39,0.35l2.42,4.97l2.4-4.97c0.1-0.18,0.22-0.29,0.4-0.35c0.18-0.07,0.36-0.04,0.52,0.05
			c0.15,0.09,0.26,0.23,0.31,0.42C71.87,138.8,71.85,138.98,71.75,139.16z M78.9,150.16c-0.11,0.16-0.25,0.26-0.43,0.29
			c-0.03,0-0.07,0.01-0.1,0.01c-0.14,0-0.27-0.04-0.39-0.13c-0.16-0.11-0.25-0.26-0.28-0.44l-0.57-3.69H74.5l-0.62,3.7
			c-0.03,0.17-0.11,0.31-0.24,0.42c-0.13,0.12-0.31,0.16-0.52,0.14c-0.28-0.03-0.41-0.19-0.48-0.32c-0.06-0.16-0.09-0.31-0.06-0.48
			l1.79-10.83c0.03-0.17,0.11-0.31,0.23-0.42c0.13-0.11,0.27-0.17,0.43-0.17h1.64c0.17,0,0.33,0.06,0.45,0.19
			c0.11,0.12,0.18,0.25,0.2,0.4l1.69,10.82C79.04,149.84,79,150.01,78.9,150.16z M85.64,150.12c-0.14,0.14-0.29,0.2-0.47,0.2h-1.31
			c-0.19,0-0.35-0.07-0.48-0.21c-0.13-0.13-0.19-0.3-0.19-0.48v-7.58c0-0.18,0.06-0.34,0.19-0.48c0.26-0.29,0.71-0.3,0.96,0
			c0.12,0.14,0.18,0.3,0.18,0.48v6.86h0.65c0.18,0,0.33,0.07,0.47,0.21c0.13,0.12,0.2,0.3,0.2,0.49
			C85.84,149.81,85.77,149.98,85.64,150.12z M91.5,147.83c-0.09,0.56-0.24,1.03-0.43,1.4c-0.21,0.38-0.48,0.66-0.82,0.84
			c-0.33,0.17-0.72,0.26-1.18,0.26c-0.46,0-0.87-0.09-1.19-0.26c-0.33-0.17-0.61-0.46-0.82-0.84c-0.2-0.36-0.34-0.83-0.43-1.4
			c-0.08-0.55-0.12-1.21-0.12-1.98s0.04-1.44,0.12-1.99c0.09-0.56,0.23-1.03,0.43-1.4c0.21-0.38,0.49-0.66,0.82-0.83
			c0.32-0.18,0.73-0.27,1.19-0.27c0.45,0,0.85,0.09,1.18,0.27c0.33,0.18,0.61,0.46,0.81,0.83c0.2,0.37,0.35,0.84,0.44,1.4
			c0.09,0.54,0.14,1.19,0.14,1.99C91.64,146.64,91.59,147.29,91.5,147.83z M96.75,149.76c-0.02,0.15-0.09,0.27-0.22,0.39
			c-0.12,0.11-0.27,0.16-0.43,0.16h-1.31c-0.17,0-0.31-0.05-0.43-0.16c-0.14-0.12-0.21-0.26-0.22-0.41l-1.45-7.55
			c-0.03-0.18,0-0.35,0.08-0.51c0.1-0.17,0.25-0.28,0.42-0.32c0.22-0.05,0.38-0.01,0.53,0.11c0.14,0.11,0.24,0.27,0.27,0.45l1.33,7
			h0.22l1.26-7c0.02-0.18,0.12-0.34,0.28-0.45c0.12-0.08,0.26-0.12,0.4-0.12l0.09,0.01c0.2,0.05,0.34,0.15,0.44,0.31
			c0.1,0.16,0.13,0.34,0.09,0.51L96.75,149.76z M103.15,145.15c0.18,0,0.35,0.07,0.48,0.22c0.12,0.12,0.19,0.29,0.19,0.48
			c0,0.19-0.07,0.35-0.19,0.49c-0.12,0.14-0.29,0.21-0.47,0.21h-2.74v2.37h2.94c0.12,0,0.3,0.04,0.47,0.21
			c0.12,0.12,0.19,0.29,0.19,0.49c0,0.19-0.07,0.36-0.2,0.5c-0.13,0.13-0.29,0.2-0.46,0.2h-3.6c-0.19,0-0.36-0.07-0.48-0.21
			c-0.12-0.14-0.19-0.3-0.19-0.48v-7.58c0-0.18,0.06-0.33,0.18-0.48c0.13-0.15,0.3-0.23,0.49-0.23h3.6c0.12,0,0.3,0.04,0.47,0.22
			c0.13,0.14,0.19,0.3,0.19,0.48c0,0.2-0.07,0.38-0.2,0.51c-0.14,0.13-0.29,0.19-0.46,0.19h-2.94v2.39H103.15z M114.31,147.02
			c-0.21,0.79-0.55,1.45-1,1.96c-0.46,0.51-1.06,0.89-1.77,1.13c-0.7,0.23-1.55,0.35-2.52,0.35c-0.17,0-0.33-0.07-0.47-0.21
			c-0.13-0.14-0.19-0.3-0.19-0.48v-10.84c0-0.17,0.06-0.33,0.17-0.47c0.13-0.15,0.3-0.23,0.48-0.23c0.98,0,1.83,0.11,2.54,0.33
			c0.72,0.23,1.31,0.59,1.77,1.07c0.45,0.49,0.79,1.13,0.99,1.88c0.2,0.75,0.31,1.65,0.31,2.71
			C114.62,145.29,114.51,146.23,114.31,147.02z M120.58,143.65c0.19,0,0.35,0.08,0.48,0.23c0.12,0.14,0.18,0.3,0.18,0.47
			c0,0.18-0.06,0.35-0.18,0.48c-0.14,0.14-0.3,0.22-0.49,0.22h-3.59v4.01h3.84c0.18,0,0.34,0.07,0.47,0.21
			c0.13,0.14,0.2,0.3,0.2,0.49c0,0.19-0.07,0.36-0.2,0.49c-0.14,0.14-0.3,0.21-0.47,0.21h-4.5c-0.18,0-0.34-0.07-0.48-0.2
			c-0.13-0.14-0.19-0.3-0.19-0.49v-10.84c0-0.17,0.06-0.33,0.18-0.47c0.14-0.15,0.3-0.23,0.49-0.23h4.5c0.18,0,0.35,0.08,0.48,0.22
			c0.13,0.15,0.19,0.31,0.19,0.48c0,0.2-0.07,0.37-0.2,0.5c-0.13,0.13-0.29,0.2-0.47,0.2h-3.84v4.01H120.58z M124.06,142.07
			c0.1,0.22,0.22,0.4,0.38,0.56c0.17,0.18,0.37,0.35,0.6,0.51c0.24,0.18,0.49,0.35,0.76,0.53c0.28,0.19,0.57,0.39,0.87,0.6
			c0.33,0.24,0.6,0.48,0.84,0.75c0.26,0.29,0.46,0.62,0.62,0.97c0.16,0.37,0.24,0.78,0.24,1.26c0,1.03-0.25,1.83-0.75,2.38
			c-0.51,0.56-1.24,0.84-2.16,0.84c-0.28,0-0.59-0.04-0.92-0.12c-0.36-0.09-0.7-0.27-0.99-0.53c-0.3-0.27-0.56-0.64-0.78-1.12
			c-0.2-0.48-0.31-1.11-0.31-1.88c0-0.18,0.06-0.34,0.19-0.48c0.26-0.3,0.75-0.28,0.98,0.01c0.11,0.14,0.17,0.3,0.17,0.47
			c0,1.51,0.54,2.25,1.66,2.25c0.55,0,0.95-0.14,1.19-0.42c0.25-0.29,0.38-0.76,0.38-1.41c0-0.28-0.05-0.53-0.14-0.74
			c-0.11-0.23-0.24-0.43-0.4-0.6c-0.17-0.18-0.38-0.35-0.62-0.53l-0.79-0.53c-0.29-0.19-0.57-0.39-0.85-0.59
			c-0.28-0.2-0.55-0.43-0.8-0.72c-0.25-0.27-0.45-0.59-0.61-0.94c-0.15-0.35-0.23-0.76-0.23-1.21c0-2.61,1.56-3.15,2.87-3.15
			c0.19,0,0.44,0.04,0.74,0.1c0.33,0.07,0.67,0.23,0.99,0.48c0.33,0.25,0.61,0.63,0.85,1.13c0.24,0.5,0.35,1.15,0.35,1.99
			c0,0.18-0.06,0.34-0.19,0.48c-0.27,0.3-0.72,0.29-0.96,0c-0.12-0.14-0.18-0.3-0.18-0.48c0-0.49-0.05-0.89-0.16-1.2
			c-0.1-0.29-0.23-0.52-0.39-0.69c-0.14-0.15-0.31-0.25-0.49-0.32c-0.46-0.14-0.82-0.11-1.19-0.03c-0.18,0.04-0.33,0.11-0.47,0.23
			c-0.12,0.11-0.23,0.28-0.32,0.51c-0.09,0.24-0.14,0.56-0.14,0.95C123.92,141.64,123.96,141.87,124.06,142.07z M131.55,149.77
			c0,0.18-0.06,0.34-0.18,0.47c-0.14,0.14-0.3,0.22-0.48,0.22c-0.18,0-0.35-0.07-0.48-0.21c-0.13-0.14-0.19-0.3-0.19-0.48v-10.84
			c0-0.17,0.06-0.33,0.18-0.47c0.26-0.3,0.71-0.3,0.97-0.01c0.12,0.15,0.18,0.31,0.18,0.48V149.77z M139.11,147.36
			c-0.09,0.66-0.25,1.22-0.47,1.67c-0.23,0.47-0.55,0.83-0.94,1.07c-0.4,0.25-0.88,0.37-1.47,0.37c-0.56,0-1.04-0.12-1.42-0.35
			c-0.39-0.23-0.72-0.61-0.96-1.11c-0.23-0.48-0.4-1.12-0.5-1.89c-0.1-0.75-0.15-1.66-0.15-2.76c0-1.09,0.05-2.02,0.15-2.75
			c0.1-0.76,0.27-1.4,0.5-1.89c0.25-0.51,0.57-0.88,0.96-1.12c0.4-0.24,0.87-0.35,1.41-0.35c0.45,0,0.84,0.08,1.17,0.22
			c0.34,0.15,0.63,0.38,0.87,0.69c0.23,0.32,0.42,0.72,0.57,1.18c0.14,0.46,0.25,1.01,0.33,1.63c0.02,0.19-0.02,0.36-0.13,0.51
			c-0.11,0.15-0.26,0.24-0.44,0.27l-0.1,0.01c-0.14,0-0.27-0.04-0.41-0.13c-0.18-0.12-0.28-0.28-0.3-0.48
			c-0.06-0.6-0.15-1.07-0.27-1.41c-0.12-0.34-0.24-0.59-0.38-0.75c-0.13-0.14-0.26-0.23-0.4-0.26c-0.28-0.08-0.54-0.08-0.87-0.04
			c-0.11,0.01-0.22,0.05-0.32,0.12c-0.12,0.07-0.23,0.2-0.35,0.37c-0.12,0.17-0.22,0.44-0.33,0.79c-0.1,0.36-0.17,0.82-0.23,1.36
			c-0.06,0.57-0.09,1.26-0.09,2.05c0,0.8,0.03,1.49,0.09,2.07c0.06,0.55,0.13,1.01,0.22,1.36c0.09,0.34,0.19,0.6,0.3,0.78
			c0.12,0.17,0.23,0.3,0.36,0.38c0.11,0.06,0.21,0.1,0.31,0.1c0.43,0.05,0.76,0.03,1.07-0.06c0.18-0.05,0.33-0.17,0.47-0.37
			c0.14-0.22,0.27-0.57,0.37-1.04c0.09-0.43,0.15-1.03,0.18-1.77h-0.95v1.53c0,0.18-0.07,0.35-0.2,0.48
			c-0.3,0.31-0.73,0.26-0.96-0.01c-0.11-0.12-0.18-0.29-0.18-0.47v-2.23c0-0.18,0.06-0.34,0.17-0.48c0.12-0.15,0.29-0.23,0.48-0.23
			h2.32c0.2,0,0.37,0.09,0.5,0.24c0.12,0.16,0.17,0.32,0.17,0.48C139.25,145.95,139.21,146.7,139.11,147.36z M138.98,128.42
			c-1.9,0.48-4.26,0.3-5.92,0.06c-1.81,0.92-4.83,0.79-6.57-0.59c1.92-4.93-0.33-9.02-2.08-12.49c-0.95-0.28-0.39-1.21-1.29-1.32
			c0.01-0.43,0.01-0.86,0.02-1.29c-3.77-7.34-7.24-14.97-10.79-22.51c-3.83,5.64-7.74,11.2-11.63,16.79
			c0.18,1.83,0.26,4.56-0.12,6.63c0.06,0.56,0.87,0.96-0.02,1.13c0.32,0.61,0.14,0.7,0.63,1.14c-0.94,0.96-0.1,0.87-0.36,2.26
			c0.08,0.25,0.17,0.01,0.17-0.16c0.06,1.08-0.29,1.81,0.28,3.08c0.07,0.35-0.24,0.3-0.5,0.32c0.86,1,0.11,2.37,0.76,3.89
			c-0.03,0.15-0.19,0.17-0.28,0.1c0.27,0.66,0.93,1.55,2.54,1.56c0.53,0.7,0.64,1.98-0.21,2.42c-0.69,0.07-0.91-0.3-1.48-0.35
			c-2.59,1.44-6.2,0.14-8.89,0.66c-0.45-0.58-0.61-1.43-1.11-1.96c0.79-0.68,1.53-1.41,2.5-1.9c0.26-0.66-0.04-1.9,0.69-2.09
			c0.1-0.67-0.07-1.1-0.3-1.46C95.89,116.96,94,112,95.4,106.8c-2.74-4.23-6.31-8.88-9.56-12.64c-0.81-1.3-0.74-1.7-2.14-2.43
			c-0.35,0.22-0.17,0.1-0.01,0c-0.14-0.12-0.36-0.17-0.65-0.17c0.02,0.19,0.3,0.14,0.5,0.17c-1.73,1.1-0.85,4.75-2.74,5.77
			c0.43,0.95,0.09,0.77-0.52,1.29c0.14,0.48,0.26-0.38,0.67-0.16c-0.25,0.46-0.85,0.56-1.01,1.12c0.44,0.3,0.33-0.71,0.5-0.15
			c0.12,0.71-0.49,0.77-0.66,0.31c-0.53,0.52,0.63,0.34,0.48,0.98c-0.86,0.11-0.48,1.49-1.35,1.59c-0.67,1.43-0.7,3.53-2.05,4.66
			c-0.97,3.26-2.16,4.78-3.41,7.39c0.23,3.86-4.97,9.87-4.33,12.55c0.2,0.45,0.88,0.43,1.47,0.51c0.5,0.89,0.43,1.6-0.04,2.42
			c-2.45-0.01-5.16-0.98-8.38-0.79c-0.48-0.5-1.18-0.79-1.29-1.64c0.94-0.59,1.53-0.83,2.33-1.74c0.58-6.04-0.81-11.87-0.19-17.96
			c0.1-0.94,0.52-1.81,0.55-2.74c0.05-2.84-0.49-5.78-0.68-8.59c-0.28-4.54,0.25-9.17-0.09-13.76c-0.59-7.99,0.25-16.02-0.58-23.95
			c-1.61-1.07-3.97-1.42-4.21-3.79c3.53-1.74,10.68-1.63,14.66-1.54c0.75,1.61-0.26,2.89-1.54,3.7c0.02,2.43,2.11,3.71,2.2,5.54
			c2.77,5.15,5.65,9.25,8.97,13.9c3.72-7.69,7.47-15.33,10.92-23.28c-0.93-0.49-1.56-1.27-2.1-2.14c1.83-3,5.19-0.71,8.9-0.98
			c0.92-0.46,2.31-1.13,2.97-0.11c-0.01,0.7-0.54,0.87-0.69,1.44c-0.06,3.53,2.2,6.16,3.13,9.28c2.83,4.83,5.24,10.07,7.46,15.5
			c0.47-0.34,1.42-0.2,1.81-0.62c0.23-0.48,0.25-1.29,0.03-1.78c3.25-6.52,6.82-12.7,11.33-17.93c-0.78-0.7-1.45-1.5-1.94-2.47
			c0.73-0.19,1.26-0.58,1.83-0.94c2.37,1.25,5.33,0.22,7.71,0.78c1.28,0.3,1.62,1.71,3.1,1.34c1.3,1.36-0.76,2.01-1.36,2.89
			c-0.06,2.06-0.15,4.17,0.73,5.35c0.12,0.74-0.4,0.8-0.51,1.29c0.53,9.88-0.04,17.72,0.34,27.51c0.06,1.4,0.62,2.67,0.76,4.06
			c0.33,3.46-0.75,8.05,0.12,12.29c-0.66,4.58,0.67,9.76,0.58,14.41c-0.04,1.73-0.09,3.27,1.91,3.75
			C139.38,127.19,139.24,127.87,138.98,128.42z M146.5,149.77c0,0.18-0.07,0.35-0.19,0.48c-0.13,0.14-0.3,0.21-0.47,0.21h-1.21
			c-0.15,0-0.3-0.05-0.42-0.16c-0.12-0.09-0.2-0.22-0.23-0.38l-2.22-9.72v9.57c0,0.18-0.06,0.34-0.2,0.48
			c-0.27,0.27-0.68,0.27-0.95,0c-0.13-0.15-0.19-0.31-0.19-0.48v-10.84c0-0.16,0.06-0.32,0.17-0.47c0.14-0.16,0.3-0.23,0.48-0.23
			h1.08c0.16,0,0.3,0.06,0.42,0.17c0.1,0.09,0.18,0.21,0.22,0.36l2.37,10.29v-10.12c0-0.17,0.06-0.33,0.17-0.47
			c0.26-0.3,0.71-0.31,0.98-0.01c0.13,0.15,0.19,0.31,0.19,0.48V149.77z"/>
		<polygon class="st1" points="75.59,139.64 74.74,144.79 76.9,144.79 76.11,139.64 		"/>
		<path class="st1" d="M112.43,140.72c-0.28-0.34-0.67-0.59-1.15-0.76c-0.44-0.15-0.98-0.25-1.59-0.29v9.37
			c0.61-0.04,1.14-0.14,1.57-0.31c0.48-0.19,0.86-0.45,1.16-0.82c0.3-0.38,0.52-0.86,0.65-1.45c0.14-0.61,0.21-1.36,0.21-2.23
			c0-0.83-0.07-1.55-0.2-2.13C112.95,141.54,112.73,141.08,112.43,140.72z"/>
		<path class="st1" d="M130.92,103.54c0.03-0.24,0.38-0.14,0.63-0.15c-0.03-0.62-0.35-0.96-0.61-0.95c0.26-0.3-0.01-0.2,0.01-0.62
			c0.2,0.01,0.21,0.2,0.47,0.16c-1.48-1.24,1.21-3.49-0.24-4.22c0.63-0.29,0.33-1.83-0.12-2.04c-0.78-4.27,0.18-9.32-0.72-13.14
			c0.63-1.89-0.13-4.26-0.35-6.58c-0.38-3.99-0.63-6.82-0.61-10.18c-0.73-0.53-0.01-1.6-0.43-2.51c-1.41,0.87-1.6,3-3.03,3.86
			c-1.03,3.12-3.46,4.79-4.35,8.05c-1.59,2.05-4.12,5.81-4.98,8.52c-0.43,1.37,0,2.27,0.56,3.76c0.1,0.22,0.6,0.04,0.62,0.33
			c-0.39,0.45,0.17,1.42,0.61,1.42c-1.08,1,0.99,0.98,0.28,1.88c0.54-0.11,0.68,0.15,0.77,0.48c0.02,0.21-0.64,0.46-0.17,0.62
			c0.55-0.59,0.75,1.02,0.6,1.57c0.59,0.1,0.33,1.13,1.07,1.42c-0.41,1,2.48,4.8,2.08,6.14c0.71,0.37,0.93,0.61,0.92,1.42
			c0.69-0.16,1.05,0.48,0.77,0.79c-0.2-0.16-0.3-0.43-0.62-0.48c-0.02,0.89,0.66,1.1,1.07,1.57c-0.7,0.59,0.63,1.88,0.9,1.74
			c0.19,0.51-0.5,0.11-0.32,0.62c0.58-0.06,1.31,3.15,1.67,2.53c-0.36,1.07,0.44,1.8,0.58,2.83c0.38,0.07,0.35-0.28,0.79-0.14
			c0.06,0.56,0.24,0.91-0.03,1.41c0.72,0.61,0.8,0.98,1.54,1.43c0.17-0.44,0.17-0.65,0.02-1.09c1.08-0.33,1.03-1.94,1.15-2.95
			c0.26-2.33,0.59-5.27-0.04-7.51C131.13,103.48,130.99,103.76,130.92,103.54z M130.92,103.85c0.47,0.45,0.31,0.91,0.44,1.41
			C130.62,105.19,131.18,104.54,130.92,103.85z"/>
	</g>
	<path class="st2" d="M12.9,80.23c0.15,0.26,0.93,10.74,0,13.45c-0.93,2.71,2.42-6.72,2.42-6.72s0.9-8.5-1.29-8.38
		C11.84,78.68,12.9,80.23,12.9,80.23z"/>
</g>
</svg>
